<?xml version="1.0" encoding="UTF-8"?>
<svg xmlns="http://www.w3.org/2000/svg" xmlns:xlink="http://www.w3.org/1999/xlink" width="140pt" height="140pt" viewBox="0 0 140 140" version="1.1">
<g id="surface1">
<path style=" stroke:none;fill-rule:nonzero;fill:rgb(0%,0%,0%);fill-opacity:1;" d="M 0 70 L 0 140 L 140 140 L 140 0 L 0 0 Z M 72.722656 22.308594 C 76.039062 22.503906 76.804688 22.570312 76.921875 22.699219 C 77 22.761719 77.335938 22.816406 77.675781 22.816406 C 78.011719 22.816406 78.296875 22.867188 78.296875 22.929688 C 78.296875 22.996094 78.789062 23.085938 79.398438 23.140625 C 80.007812 23.191406 80.527344 23.28125 80.578125 23.347656 C 80.617188 23.410156 80.875 23.464844 81.148438 23.464844 C 81.421875 23.464844 81.691406 23.515625 81.730469 23.59375 C 81.769531 23.65625 81.976562 23.722656 82.199219 23.722656 C 82.40625 23.722656 82.574219 23.773438 82.574219 23.851562 C 82.574219 23.917969 82.78125 23.980469 83.027344 23.980469 C 83.273438 23.980469 83.480469 24.035156 83.480469 24.109375 C 83.480469 24.175781 83.609375 24.242188 83.78125 24.242188 C 84.105469 24.242188 85.503906 24.65625 85.632812 24.796875 C 85.683594 24.851562 85.828125 24.890625 85.945312 24.890625 C 86.0625 24.890625 86.398438 25.003906 86.695312 25.148438 C 86.980469 25.289062 87.320312 25.40625 87.433594 25.40625 C 87.539062 25.40625 87.628906 25.460938 87.628906 25.535156 C 87.628906 25.601562 87.746094 25.667969 87.875 25.667969 C 88.019531 25.667969 88.160156 25.71875 88.199219 25.785156 C 88.238281 25.847656 88.484375 25.9375 88.730469 25.976562 C 88.976562 26.03125 89.183594 26.121094 89.183594 26.183594 C 89.183594 26.261719 89.261719 26.316406 89.367188 26.316406 C 89.601562 26.316406 92.996094 28.011719 93.046875 28.15625 C 93.074219 28.207031 93.179688 28.257812 93.28125 28.257812 C 93.386719 28.257812 93.464844 28.3125 93.464844 28.390625 C 93.464844 28.453125 93.539062 28.519531 93.644531 28.519531 C 93.878906 28.519531 94.628906 28.933594 94.628906 29.0625 C 94.628906 29.128906 94.707031 29.167969 94.796875 29.167969 C 94.890625 29.167969 95.082031 29.269531 95.226562 29.398438 C 95.355469 29.53125 95.691406 29.75 95.964844 29.878906 C 96.25 30.023438 96.574219 30.191406 96.714844 30.269531 C 96.847656 30.332031 96.964844 30.4375 96.964844 30.488281 C 96.964844 30.554688 97.015625 30.59375 97.09375 30.59375 C 97.210938 30.59375 97.324219 30.671875 98.027344 31.265625 C 98.179688 31.394531 98.375 31.5 98.453125 31.5 C 98.542969 31.5 98.75 31.667969 98.921875 31.890625 C 99.089844 32.097656 99.296875 32.277344 99.386719 32.277344 C 99.464844 32.277344 99.738281 32.472656 99.984375 32.71875 C 100.242188 32.964844 100.527344 33.210938 100.632812 33.277344 C 101.1875 33.601562 104.675781 36.917969 105.246094 37.671875 C 105.351562 37.8125 105.726562 38.242188 106.089844 38.628906 C 106.839844 39.445312 107.4375 40.183594 108.148438 41.144531 C 108.707031 41.910156 108.707031 41.910156 109.214844 42.582031 C 109.679688 43.207031 109.898438 43.542969 110.003906 43.839844 C 110.042969 43.96875 110.132812 44.074219 110.199219 44.074219 C 110.261719 44.074219 110.316406 44.140625 110.316406 44.203125 C 110.316406 44.28125 110.523438 44.644531 110.769531 45.019531 C 111.015625 45.382812 111.222656 45.757812 111.222656 45.851562 C 111.222656 45.941406 111.285156 46.019531 111.351562 46.019531 C 111.429688 46.019531 111.480469 46.136719 111.480469 46.277344 C 111.480469 46.421875 111.546875 46.535156 111.609375 46.535156 C 111.6875 46.535156 111.742188 46.628906 111.742188 46.730469 C 111.742188 46.835938 111.78125 46.925781 111.84375 46.925781 C 111.894531 46.925781 112.117188 47.289062 112.324219 47.742188 C 112.542969 48.183594 112.75 48.558594 112.816406 48.585938 C 112.867188 48.609375 112.90625 48.742188 112.90625 48.882812 C 112.90625 49.011719 112.972656 49.128906 113.035156 49.128906 C 113.113281 49.128906 113.167969 49.179688 113.167969 49.257812 C 113.167969 49.324219 113.320312 49.714844 113.515625 50.128906 C 113.699219 50.542969 113.855469 50.957031 113.855469 51.035156 C 113.855469 51.125 113.90625 51.203125 113.96875 51.203125 C 114.023438 51.203125 114.074219 51.292969 114.074219 51.398438 C 114.074219 51.5 114.125 51.695312 114.191406 51.824219 C 114.253906 51.941406 114.359375 52.1875 114.4375 52.371094 C 114.5 52.550781 114.65625 52.902344 114.761719 53.148438 C 115.085938 53.898438 115.5 55.195312 115.5 55.480469 C 115.5 55.625 115.566406 55.742188 115.628906 55.742188 C 115.707031 55.742188 115.757812 55.910156 115.757812 56.117188 C 115.757812 56.335938 115.824219 56.542969 115.890625 56.582031 C 115.964844 56.621094 116.019531 56.804688 116.019531 56.984375 C 116.019531 57.152344 116.070312 57.398438 116.136719 57.53125 C 116.355469 57.96875 116.535156 58.683594 116.613281 59.472656 C 116.667969 59.914062 116.757812 60.277344 116.808594 60.277344 C 116.875 60.277344 116.925781 60.5625 116.925781 60.914062 C 116.925781 61.277344 116.992188 61.601562 117.054688 61.640625 C 117.132812 61.679688 117.183594 62 117.183594 62.339844 C 117.183594 62.675781 117.238281 63 117.300781 63.078125 C 117.585938 63.363281 117.847656 69.855469 117.691406 72.683594 C 117.496094 76.183594 117.429688 76.871094 117.300781 76.871094 C 117.238281 76.871094 117.183594 77.179688 117.183594 77.570312 C 117.183594 77.960938 117.121094 78.320312 117.054688 78.359375 C 116.992188 78.398438 116.925781 78.699219 116.925781 79.023438 C 116.925781 79.332031 116.875 79.59375 116.820312 79.59375 C 116.769531 79.59375 116.652344 80.046875 116.5625 80.589844 C 116.316406 82.183594 116.25 82.445312 116.136719 82.523438 C 116.070312 82.5625 116.019531 82.753906 116.019531 82.964844 C 116.019531 83.171875 115.964844 83.378906 115.890625 83.417969 C 115.824219 83.457031 115.757812 83.664062 115.757812 83.882812 C 115.757812 84.089844 115.707031 84.257812 115.628906 84.257812 C 115.566406 84.257812 115.5 84.375 115.5 84.503906 C 115.5 84.726562 115.058594 86.113281 114.734375 86.917969 C 114.476562 87.550781 114.292969 87.964844 114.191406 88.175781 C 114.125 88.304688 114.074219 88.5 114.074219 88.601562 C 114.074219 88.707031 114.023438 88.796875 113.945312 88.796875 C 113.878906 88.796875 113.789062 89.003906 113.738281 89.25 C 113.699219 89.496094 113.605469 89.703125 113.542969 89.703125 C 113.476562 89.703125 113.425781 89.78125 113.425781 89.886719 C 113.425781 90.117188 111.988281 92.996094 111.84375 93.046875 C 111.792969 93.074219 111.742188 93.179688 111.742188 93.28125 C 111.742188 93.386719 111.6875 93.464844 111.609375 93.464844 C 111.546875 93.464844 111.480469 93.578125 111.480469 93.722656 C 111.480469 93.863281 111.429688 93.980469 111.351562 93.980469 C 111.285156 93.980469 111.222656 94.070312 111.222656 94.175781 C 111.222656 94.28125 110.976562 94.71875 110.679688 95.175781 C 110.367188 95.628906 110.070312 96.082031 109.992188 96.199219 C 109.574219 96.886719 108.796875 97.960938 108.605469 98.144531 C 108.472656 98.257812 108.371094 98.402344 108.371094 98.464844 C 108.371094 98.597656 107.890625 99.191406 107.046875 100.140625 C 106.777344 100.4375 106.554688 100.722656 106.554688 100.773438 C 106.554688 100.863281 106.167969 101.292969 104.871094 102.679688 C 104.546875 103.015625 104.105469 103.484375 103.886719 103.730469 C 103.339844 104.324219 101.097656 106.375 100.5 106.800781 C 100.230469 107.007812 99.878906 107.292969 99.722656 107.449219 C 99.570312 107.59375 99.414062 107.722656 99.375 107.722656 C 99.335938 107.722656 99.152344 107.863281 98.960938 108.046875 C 98.765625 108.226562 98.542969 108.371094 98.464844 108.371094 C 98.390625 108.371094 98.234375 108.488281 98.128906 108.628906 C 98.027344 108.773438 97.871094 108.890625 97.792969 108.890625 C 97.714844 108.890625 97.570312 108.980469 97.480469 109.082031 C 97.3125 109.289062 96.222656 110.054688 96.105469 110.054688 C 96.082031 110.054688 95.652344 110.316406 95.175781 110.640625 C 94.695312 110.964844 94.242188 111.222656 94.148438 111.222656 C 94.058594 111.222656 93.980469 111.273438 93.980469 111.351562 C 93.980469 111.417969 93.863281 111.480469 93.722656 111.480469 C 93.578125 111.480469 93.464844 111.535156 93.464844 111.609375 C 93.464844 111.675781 93.386719 111.742188 93.28125 111.742188 C 93.179688 111.742188 93.074219 111.78125 93.046875 111.84375 C 93.035156 111.894531 92.542969 112.167969 91.972656 112.453125 C 91.402344 112.738281 90.921875 113.011719 90.894531 113.0625 C 90.871094 113.101562 90.597656 113.21875 90.273438 113.308594 C 89.964844 113.398438 89.703125 113.53125 89.703125 113.582031 C 89.703125 113.632812 89.496094 113.710938 89.25 113.761719 C 89.003906 113.800781 88.796875 113.894531 88.796875 113.957031 C 88.796875 114.023438 88.652344 114.074219 88.472656 114.074219 C 88.289062 114.074219 88.148438 114.125 88.148438 114.203125 C 88.148438 114.269531 88.03125 114.332031 87.902344 114.332031 C 87.757812 114.332031 87.605469 114.398438 87.566406 114.464844 C 87.527344 114.539062 87.34375 114.59375 87.175781 114.59375 C 87.007812 114.59375 86.851562 114.644531 86.824219 114.695312 C 86.8125 114.75 86.269531 114.957031 85.621094 115.164062 C 84.984375 115.355469 84.351562 115.578125 84.234375 115.644531 C 84.105469 115.707031 83.882812 115.757812 83.742188 115.757812 C 83.597656 115.757812 83.378906 115.8125 83.25 115.875 C 83.132812 115.941406 82.769531 116.058594 82.445312 116.148438 C 82.121094 116.226562 81.691406 116.34375 81.472656 116.40625 C 81.265625 116.472656 80.746094 116.5625 80.332031 116.613281 C 79.917969 116.667969 79.554688 116.757812 79.515625 116.808594 C 79.476562 116.875 79.214844 116.925781 78.945312 116.925781 C 78.671875 116.925781 78.398438 116.976562 78.359375 117.054688 C 78.320312 117.121094 78.035156 117.183594 77.726562 117.183594 C 77.429688 117.183594 77.128906 117.238281 77.066406 117.300781 C 76.765625 117.585938 70.128906 117.859375 67.25 117.691406 C 63.6875 117.496094 63 117.429688 63 117.300781 C 63 117.238281 62.714844 117.183594 62.363281 117.183594 C 62 117.183594 61.679688 117.121094 61.640625 117.054688 C 61.601562 116.976562 61.277344 116.925781 60.914062 116.925781 C 60.5625 116.925781 60.277344 116.875 60.277344 116.808594 C 60.277344 116.757812 59.875 116.652344 59.371094 116.613281 C 58.878906 116.5625 58.4375 116.472656 58.398438 116.394531 C 58.347656 116.328125 58.152344 116.277344 57.945312 116.277344 C 57.738281 116.277344 57.53125 116.214844 57.492188 116.148438 C 57.453125 116.070312 57.246094 116.019531 57.023438 116.019531 C 56.816406 116.019531 56.648438 115.953125 56.648438 115.890625 C 56.648438 115.8125 56.480469 115.757812 56.273438 115.757812 C 56.050781 115.757812 55.84375 115.695312 55.804688 115.628906 C 55.765625 115.550781 55.585938 115.5 55.417969 115.5 C 55.25 115.5 55.078125 115.449219 55.027344 115.371094 C 54.988281 115.304688 54.871094 115.28125 54.78125 115.320312 C 54.679688 115.355469 54.5625 115.332031 54.507812 115.253906 C 54.46875 115.175781 54.316406 115.109375 54.171875 115.109375 C 54.042969 115.109375 53.820312 115.058594 53.691406 114.996094 C 53.574219 114.929688 53.304688 114.8125 53.082031 114.722656 C 52.875 114.632812 52.589844 114.515625 52.472656 114.449219 C 52.34375 114.386719 52.148438 114.332031 52.046875 114.332031 C 51.941406 114.332031 51.851562 114.269531 51.851562 114.203125 C 51.851562 114.125 51.734375 114.074219 51.605469 114.074219 C 51.464844 114.074219 51.320312 114.023438 51.28125 113.957031 C 51.242188 113.894531 50.996094 113.800781 50.75 113.761719 C 50.503906 113.710938 50.296875 113.621094 50.296875 113.554688 C 50.296875 113.476562 50.21875 113.425781 50.113281 113.425781 C 49.804688 113.425781 46.136719 111.535156 46.042969 111.3125 C 46.019531 111.261719 45.890625 111.222656 45.757812 111.222656 C 45.644531 111.222656 45.460938 111.132812 45.371094 111.027344 C 45.28125 110.925781 45.125 110.832031 45.035156 110.832031 C 44.929688 110.832031 44.851562 110.769531 44.851562 110.703125 C 44.851562 110.625 44.773438 110.574219 44.683594 110.574219 C 44.59375 110.574219 44.386719 110.457031 44.230469 110.316406 C 44.074219 110.171875 43.917969 110.054688 43.878906 110.054688 C 43.761719 110.054688 42.066406 108.851562 42.027344 108.734375 C 42 108.679688 41.894531 108.628906 41.792969 108.628906 C 41.6875 108.628906 41.390625 108.421875 41.105469 108.175781 C 40.832031 107.929688 40.574219 107.722656 40.523438 107.722656 C 40.484375 107.722656 40.289062 107.554688 40.09375 107.359375 C 39.886719 107.152344 39.613281 106.929688 39.484375 106.855469 C 38.71875 106.4375 34.09375 101.796875 33.328125 100.671875 C 33.222656 100.515625 33.070312 100.359375 32.976562 100.292969 C 32.886719 100.242188 32.679688 99.96875 32.523438 99.683594 C 32.355469 99.398438 32.1875 99.167969 32.136719 99.167969 C 32.019531 99.167969 31.109375 97.910156 31.109375 97.765625 C 31.109375 97.703125 30.996094 97.546875 30.863281 97.417969 C 30.617188 97.210938 29.683594 95.730469 29.683594 95.574219 C 29.683594 95.535156 29.582031 95.40625 29.453125 95.289062 C 29.335938 95.175781 29.167969 94.964844 29.089844 94.824219 C 28.480469 93.710938 28.21875 93.253906 28.117188 93.125 C 27.910156 92.867188 27.09375 91.207031 27.09375 91.039062 C 27.09375 90.949219 27.039062 90.871094 26.964844 90.871094 C 26.898438 90.871094 26.832031 90.753906 26.832031 90.609375 C 26.832031 90.46875 26.78125 90.351562 26.703125 90.351562 C 26.640625 90.351562 26.574219 90.273438 26.574219 90.183594 C 26.574219 90.078125 26.429688 89.714844 26.25 89.367188 C 26.070312 89.015625 25.925781 88.628906 25.925781 88.5 C 25.925781 88.382812 25.875 88.277344 25.796875 88.277344 C 25.730469 88.277344 25.667969 88.136719 25.667969 87.953125 C 25.667969 87.773438 25.613281 87.628906 25.535156 87.628906 C 25.472656 87.628906 25.40625 87.511719 25.40625 87.371094 C 25.40625 87.226562 25.289062 86.917969 25.148438 86.65625 C 25.003906 86.398438 24.890625 86.085938 24.890625 85.945312 C 24.890625 85.816406 24.835938 85.671875 24.773438 85.632812 C 24.707031 85.59375 24.617188 85.296875 24.578125 84.972656 C 24.527344 84.660156 24.433594 84.363281 24.355469 84.324219 C 24.292969 84.273438 24.242188 84.078125 24.242188 83.871094 C 24.242188 83.664062 24.175781 83.457031 24.109375 83.417969 C 24.035156 83.378906 23.980469 83.195312 23.980469 83.027344 C 23.980469 82.859375 23.917969 82.679688 23.851562 82.640625 C 23.773438 82.601562 23.722656 82.394531 23.722656 82.183594 C 23.722656 81.976562 23.671875 81.785156 23.605469 81.746094 C 23.488281 81.667969 23.4375 81.40625 23.179688 79.554688 C 23.101562 78.929688 22.984375 78.425781 22.917969 78.425781 C 22.867188 78.425781 22.816406 78.113281 22.816406 77.726562 C 22.816406 77.335938 22.75 76.972656 22.683594 76.933594 C 22.621094 76.894531 22.554688 76.402344 22.554688 75.847656 C 22.554688 75.300781 22.503906 74.796875 22.4375 74.71875 C 22.347656 74.628906 22.207031 72.203125 22.152344 69.804688 C 22.128906 68.679688 22.347656 65.0625 22.4375 64.996094 C 22.503906 64.957031 22.554688 64.492188 22.554688 63.960938 C 22.554688 63.402344 22.605469 63 22.683594 63 C 22.761719 63 22.816406 62.675781 22.816406 62.285156 C 22.816406 61.898438 22.867188 61.574219 22.917969 61.574219 C 22.984375 61.574219 23.085938 61.09375 23.164062 60.5 C 23.242188 59.914062 23.371094 59.175781 23.464844 58.851562 C 23.539062 58.527344 23.644531 58.074219 23.683594 57.839844 C 23.722656 57.621094 23.800781 57.425781 23.863281 57.425781 C 23.929688 57.425781 23.980469 57.257812 23.980469 57.050781 C 23.980469 56.828125 24.046875 56.621094 24.109375 56.582031 C 24.1875 56.542969 24.242188 56.335938 24.242188 56.128906 C 24.242188 55.921875 24.292969 55.726562 24.355469 55.6875 C 24.410156 55.648438 24.5 55.378906 24.550781 55.09375 C 24.589844 54.792969 24.679688 54.457031 24.746094 54.339844 C 24.8125 54.222656 24.929688 53.9375 25.019531 53.730469 C 25.109375 53.511719 25.226562 53.238281 25.289062 53.121094 C 25.355469 52.992188 25.40625 52.773438 25.40625 52.628906 C 25.40625 52.488281 25.472656 52.371094 25.535156 52.371094 C 25.613281 52.371094 25.667969 52.226562 25.667969 52.046875 C 25.667969 51.863281 25.730469 51.722656 25.796875 51.722656 C 25.875 51.722656 25.925781 51.632812 25.925781 51.5 C 25.925781 51.386719 26.070312 50.996094 26.238281 50.632812 C 26.40625 50.269531 26.625 49.777344 26.714844 49.542969 C 26.820312 49.324219 26.9375 49.128906 26.988281 49.128906 C 27.054688 49.128906 27.09375 49.050781 27.09375 48.949219 C 27.09375 48.765625 27.921875 47.132812 28.128906 46.925781 C 28.195312 46.859375 28.351562 46.535156 28.714844 45.71875 C 28.84375 45.460938 28.984375 45.242188 29.050781 45.242188 C 29.113281 45.242188 29.167969 45.148438 29.167969 45.046875 C 29.167969 44.941406 29.21875 44.851562 29.269531 44.851562 C 29.335938 44.851562 29.515625 44.59375 29.683594 44.269531 C 29.855469 43.945312 30.0625 43.621094 30.164062 43.542969 C 30.253906 43.464844 30.332031 43.335938 30.332031 43.269531 C 30.332031 43.167969 31.058594 42.15625 31.253906 42 C 31.292969 41.960938 31.433594 41.753906 31.550781 41.519531 C 31.667969 41.300781 31.863281 41.027344 31.980469 40.9375 C 32.109375 40.847656 32.289062 40.625 32.394531 40.445312 C 32.640625 40.003906 33.222656 39.316406 34.261719 38.253906 C 34.742188 37.75 35.128906 37.308594 35.128906 37.253906 C 35.128906 37.164062 36.53125 35.789062 38.058594 34.351562 C 38.488281 33.964844 39.199219 33.339844 39.652344 32.992188 C 40.105469 32.628906 40.703125 32.148438 40.964844 31.914062 C 41.234375 31.695312 41.496094 31.5 41.558594 31.5 C 41.625 31.5 41.832031 31.355469 42.027344 31.175781 C 42.21875 30.996094 42.429688 30.851562 42.492188 30.851562 C 42.558594 30.851562 42.714844 30.734375 42.84375 30.59375 C 42.972656 30.449219 43.113281 30.332031 43.179688 30.332031 C 43.269531 30.332031 44.5 29.554688 44.8125 29.296875 C 44.902344 29.21875 45.035156 29.167969 45.109375 29.167969 C 45.175781 29.167969 45.242188 29.113281 45.242188 29.0625 C 45.242188 29 45.605469 28.789062 46.058594 28.582031 C 46.5 28.375 46.886719 28.167969 46.925781 28.128906 C 46.964844 28.078125 47.316406 27.882812 47.703125 27.6875 C 48.09375 27.496094 48.507812 27.285156 48.609375 27.234375 C 49.257812 26.871094 49.960938 26.574219 50.113281 26.574219 C 50.21875 26.574219 50.296875 26.535156 50.296875 26.46875 C 50.296875 26.367188 50.644531 26.199219 51.59375 25.859375 C 51.917969 25.746094 52.320312 25.574219 52.5 25.511719 C 52.980469 25.304688 53.433594 25.121094 53.730469 25.019531 C 53.875 24.964844 54.132812 24.863281 54.316406 24.785156 C 54.886719 24.550781 55.972656 24.242188 56.246094 24.242188 C 56.402344 24.242188 56.519531 24.175781 56.519531 24.109375 C 56.519531 24.035156 56.6875 23.980469 56.894531 23.980469 C 57.113281 23.980469 57.320312 23.917969 57.359375 23.851562 C 57.398438 23.773438 57.605469 23.722656 57.816406 23.722656 C 58.023438 23.722656 58.214844 23.671875 58.253906 23.605469 C 58.292969 23.539062 58.554688 23.464844 58.8125 23.410156 C 59.085938 23.371094 59.746094 23.28125 60.277344 23.191406 C 60.808594 23.113281 61.355469 22.996094 61.46875 22.929688 C 61.601562 22.867188 61.949219 22.816406 62.261719 22.816406 C 62.570312 22.816406 62.871094 22.761719 62.949219 22.699219 C 63.078125 22.570312 64.023438 22.476562 67.382812 22.320312 C 68.613281 22.257812 69.664062 22.167969 69.703125 22.113281 C 69.753906 22.0625 70.011719 22.0625 70.257812 22.113281 C 70.503906 22.167969 71.621094 22.257812 72.722656 22.308594 Z M 72.722656 22.308594 "/>
<path style=" stroke:none;fill-rule:nonzero;fill:rgb(0%,0%,0%);fill-opacity:1;" d="M 90.183594 38.941406 C 89.5625 39.238281 88.550781 39.652344 87.953125 39.859375 C 86.75 40.261719 86.5 40.574219 87.355469 40.574219 C 88.042969 40.574219 88.382812 41.027344 89.003906 42.726562 C 89.25 43.425781 89.507812 44.125 89.574219 44.269531 C 89.640625 44.410156 89.832031 44.96875 90.027344 45.5 C 90.222656 46.03125 90.480469 46.757812 90.609375 47.121094 C 90.742188 47.46875 91 48.210938 91.195312 48.742188 C 91.390625 49.273438 91.648438 50 91.777344 50.359375 C 93.074219 53.847656 93.464844 55.015625 93.464844 55.378906 C 93.464844 55.597656 93.320312 55.832031 93.074219 56.039062 C 92.738281 56.324219 92.554688 56.648438 92.738281 56.648438 C 92.777344 56.648438 93.605469 56.335938 94.589844 55.949219 C 95.574219 55.558594 96.925781 55.078125 97.570312 54.871094 C 98.84375 54.484375 99.152344 54.183594 98.285156 54.183594 C 97.933594 54.183594 97.714844 54.09375 97.519531 53.886719 C 97.273438 53.601562 96.703125 52.488281 96.703125 52.253906 C 96.703125 52.203125 96.585938 51.863281 96.457031 51.515625 C 96.316406 51.164062 96.054688 50.4375 95.859375 49.90625 C 95.667969 49.375 95.40625 48.636719 95.277344 48.285156 C 95.136719 47.925781 94.824219 47.054688 94.566406 46.34375 C 94.304688 45.628906 93.980469 44.75 93.851562 44.398438 C 93.722656 44.035156 93.464844 43.308594 93.269531 42.777344 C 93.074219 42.246094 92.878906 41.6875 92.816406 41.546875 C 92.761719 41.402344 92.644531 41.105469 92.582031 40.898438 C 92.503906 40.679688 92.398438 40.394531 92.347656 40.25 C 92.296875 40.105469 92.128906 39.640625 91.972656 39.214844 C 91.816406 38.785156 91.609375 38.421875 91.503906 38.410156 C 91.402344 38.394531 90.804688 38.628906 90.183594 38.941406 Z M 90.183594 38.941406 "/>
<path style=" stroke:none;fill-rule:nonzero;fill:rgb(0%,0%,0%);fill-opacity:1;" d="M 71.476562 45.566406 C 70.351562 45.929688 69.585938 46.550781 69.402344 47.277344 C 69.273438 47.753906 69.585938 48.609375 70.027344 49.027344 C 70.363281 49.351562 70.519531 49.390625 71.246094 49.390625 C 71.839844 49.390625 72.253906 49.296875 72.75 49.078125 C 73.707031 48.636719 74.042969 48.234375 74.121094 47.46875 C 74.199219 46.589844 73.890625 45.980469 73.1875 45.628906 C 72.566406 45.332031 72.242188 45.320312 71.476562 45.566406 Z M 71.476562 45.566406 "/>
<path style=" stroke:none;fill-rule:nonzero;fill:rgb(0%,0%,0%);fill-opacity:1;" d="M 83.609375 47.210938 C 81.886719 47.714844 80.164062 48.609375 79.488281 49.375 C 79.113281 49.789062 78.683594 50.660156 78.683594 51.007812 C 78.683594 51.59375 78.996094 52.332031 79.425781 52.71875 C 79.785156 53.070312 79.96875 53.148438 80.433594 53.148438 C 81.820312 53.148438 82.9375 51.863281 82.574219 50.710938 C 82.355469 50.035156 81.71875 49.414062 81.160156 49.3125 C 80.539062 49.195312 80.472656 49.15625 80.628906 48.882812 C 80.8125 48.535156 81.5625 48.222656 82.199219 48.222656 C 83.027344 48.222656 83.558594 48.84375 84.117188 50.503906 C 84.414062 51.386719 84.53125 51.902344 84.480469 52.136719 C 84.429688 52.34375 84 52.824219 83.457031 53.304688 C 80.929688 55.507812 80.371094 56.246094 80.371094 57.425781 C 80.371094 58.617188 81.214844 59.8125 82.300781 60.121094 C 83.570312 60.511719 85.710938 59.433594 86.214844 58.152344 C 86.5 57.425781 86.578125 57.386719 87.058594 57.816406 C 87.644531 58.320312 88.042969 58.410156 88.847656 58.203125 C 90.09375 57.894531 91.777344 56.84375 91.777344 56.375 C 91.777344 56.207031 91.480469 56.246094 91.207031 56.453125 C 90.714844 56.828125 90.535156 56.53125 89.574219 53.859375 C 88.914062 51.980469 88.640625 51.242188 88.535156 51.007812 C 88.472656 50.867188 88.304688 50.414062 88.160156 50 C 87.589844 48.429688 86.996094 47.5625 86.242188 47.25 C 85.722656 47.03125 84.296875 47.015625 83.609375 47.210938 Z M 85.023438 52.980469 C 85.113281 53.25 85.230469 53.589844 85.296875 53.730469 C 85.59375 54.417969 86.332031 56.648438 86.332031 56.867188 C 86.332031 57.179688 85.996094 57.503906 85.542969 57.621094 C 84.375 57.90625 83.363281 55.765625 83.933594 54.222656 C 84.285156 53.238281 84.636719 52.5 84.75 52.5 C 84.804688 52.5 84.933594 52.71875 85.023438 52.980469 Z M 85.023438 52.980469 "/>
<path style=" stroke:none;fill-rule:nonzero;fill:rgb(0%,0%,0%);fill-opacity:1;" d="M 74.109375 50.878906 C 73.175781 51.347656 71.011719 52.203125 70.597656 52.265625 C 70.128906 52.34375 70.207031 52.628906 70.6875 52.628906 C 71.453125 52.628906 71.878906 53.121094 72.4375 54.640625 C 72.515625 54.847656 72.785156 55.609375 73.058594 56.324219 C 75.160156 62.066406 75.199219 62.222656 74.601562 62.820312 C 74.421875 63 74.277344 63.167969 74.277344 63.195312 C 74.277344 63.351562 74.769531 63.21875 75.988281 62.726562 C 76.726562 62.429688 77.855469 62.027344 78.492188 61.808594 C 80.1875 61.25 80.382812 61.160156 80.332031 61.003906 C 80.304688 60.925781 80.097656 60.875 79.890625 60.898438 C 79.59375 60.925781 79.386719 60.847656 79.101562 60.574219 C 78.722656 60.226562 78.464844 59.589844 76.910156 55.285156 C 76.742188 54.78125 76.480469 54.082031 76.351562 53.730469 C 76.222656 53.367188 75.964844 52.644531 75.769531 52.109375 C 75.300781 50.816406 75.132812 50.425781 75.054688 50.4375 C 75.015625 50.4375 74.589844 50.632812 74.109375 50.878906 Z M 74.109375 50.878906 "/>
<path style=" stroke:none;fill-rule:nonzero;fill:rgb(0%,0%,0%);fill-opacity:1;" d="M 66.371094 53.601562 C 65.179688 53.835938 64.777344 53.976562 63.867188 54.496094 C 61.78125 55.664062 60.886719 57.582031 61.261719 60.019531 C 61.691406 62.6875 63.207031 65.0625 64.90625 65.734375 C 65.476562 65.957031 65.929688 66.035156 66.757812 66.035156 C 68.925781 66.046875 70.648438 65.085938 71.414062 63.453125 C 71.710938 62.804688 72.074219 61.394531 72.074219 60.835938 C 72.074219 60.367188 71.75 60.484375 71.570312 61.015625 C 71.140625 62.183594 69.441406 63.273438 68.339844 63.066406 C 67.691406 62.949219 66.835938 62.429688 66.449219 61.925781 C 65.671875 60.898438 65.023438 58.996094 64.828125 57.167969 C 64.710938 56.066406 64.828125 55.351562 65.230469 54.792969 C 65.5 54.417969 66.371094 53.9375 66.796875 53.925781 C 67.070312 53.925781 67.082031 54.222656 66.8125 54.457031 C 66.433594 54.769531 66.203125 55.417969 66.203125 56.15625 C 66.203125 56.75 66.265625 56.972656 66.550781 57.347656 C 67.003906 57.957031 67.34375 58.125 68.082031 58.113281 C 68.949219 58.101562 69.78125 57.59375 70.050781 56.90625 C 70.296875 56.285156 70.3125 56 70.105469 55.3125 C 69.6875 53.914062 68.183594 53.226562 66.371094 53.601562 Z M 66.371094 53.601562 "/>
<path style=" stroke:none;fill-rule:nonzero;fill:rgb(0%,0%,0%);fill-opacity:1;" d="M 43.21875 57.605469 C 43.179688 57.722656 43.167969 57.929688 43.207031 58.074219 C 43.320312 58.554688 42.984375 58.644531 41.117188 58.65625 C 39.757812 58.65625 39.1875 58.710938 38.695312 58.890625 C 36.554688 59.65625 35 60.898438 34.507812 62.261719 C 34.144531 63.207031 34.144531 63.960938 34.496094 64.90625 C 35.195312 66.785156 36.542969 67.652344 40.121094 68.507812 C 42.105469 68.976562 43.347656 69.546875 43.957031 70.234375 C 44.980469 71.398438 45.125 72.75 44.308594 73.605469 C 43.089844 74.875 41.144531 75.160156 39.785156 74.265625 C 38.953125 73.71875 37.863281 72.332031 37.152344 70.933594 C 36.816406 70.273438 36.554688 70.066406 36.554688 70.453125 C 36.554688 70.570312 36.710938 71.074219 36.894531 71.59375 C 37.074219 72.101562 37.308594 72.785156 37.410156 73.109375 C 37.515625 73.433594 37.644531 73.785156 37.683594 73.890625 C 37.722656 73.992188 37.941406 74.601562 38.175781 75.238281 C 38.628906 76.535156 38.890625 76.804688 38.890625 75.976562 C 38.890625 75.691406 38.953125 75.417969 39.042969 75.367188 C 39.121094 75.316406 39.953125 75.261719 40.886719 75.25 C 42.6875 75.222656 43.320312 75.070312 45.046875 74.277344 C 47.640625 73.097656 49.027344 70.921875 48.46875 68.898438 C 48.210938 67.9375 47.859375 67.328125 47.210938 66.734375 C 46.1875 65.773438 45.605469 65.539062 41.609375 64.4375 C 39.25 63.789062 38.421875 63.324219 37.996094 62.402344 C 37.683594 61.742188 37.644531 60.808594 37.902344 60.289062 C 38.34375 59.449219 39.808594 58.890625 41.015625 59.125 C 42.3125 59.355469 43.777344 60.601562 44.59375 62.132812 C 44.863281 62.648438 45.304688 62.792969 45.175781 62.324219 C 45.136719 62.171875 45.046875 61.910156 44.980469 61.769531 C 44.917969 61.625 44.65625 60.859375 44.398438 60.082031 C 44.140625 59.292969 43.867188 58.554688 43.800781 58.4375 C 43.738281 58.308594 43.683594 58.101562 43.683594 57.957031 C 43.683594 57.828125 43.59375 57.644531 43.492188 57.554688 C 43.335938 57.425781 43.285156 57.4375 43.21875 57.605469 Z M 43.21875 57.605469 "/>
<path style=" stroke:none;fill-rule:nonzero;fill:rgb(0%,0%,0%);fill-opacity:1;" d="M 53.214844 58.230469 C 51.332031 58.75 49.765625 59.902344 49.128906 61.25 C 48.78125 61.976562 48.742188 62.195312 48.742188 63.273438 C 48.742188 66.035156 50.335938 69.171875 52.203125 70.089844 C 52.890625 70.414062 53.082031 70.453125 54.316406 70.453125 C 55.3125 70.453125 55.871094 70.390625 56.390625 70.207031 C 59.824219 69.039062 61.238281 66.980469 60.667969 63.960938 C 60.097656 60.976562 58.476562 58.644531 56.570312 58.101562 C 55.792969 57.878906 54.261719 57.929688 53.214844 58.230469 Z M 54.042969 59.34375 C 55.144531 60.484375 56.6875 64.128906 57.230469 66.875 C 57.605469 68.691406 57.320312 69.742188 56.464844 69.742188 C 55.625 69.742188 54.625 68.378906 53.613281 65.851562 C 53.34375 65.179688 53.070312 64.503906 53.003906 64.359375 C 52.953125 64.21875 52.734375 63.542969 52.539062 62.871094 C 52.085938 61.289062 52.035156 59.433594 52.421875 58.996094 C 52.851562 58.527344 53.367188 58.632812 54.042969 59.34375 Z M 54.042969 59.34375 "/>
<path style=" stroke:none;fill-rule:nonzero;fill:rgb(0%,0%,0%);fill-opacity:1;" d="M 97.027344 67.25 C 96.742188 67.367188 96.378906 67.550781 96.210938 67.640625 C 95.859375 67.847656 95.148438 68.910156 95.148438 69.234375 C 95.148438 69.714844 94.875 69.609375 94.628906 69.039062 C 94.5 68.714844 94.320312 68.445312 94.253906 68.445312 C 94.1875 68.445312 93.632812 68.691406 93.007812 68.976562 C 92.386719 69.273438 91.351562 69.703125 90.6875 69.921875 C 89.429688 70.351562 89.183594 70.648438 90.078125 70.648438 C 90.804688 70.648438 91.179688 71.140625 91.777344 72.851562 C 91.933594 73.320312 92.269531 74.25 92.515625 74.925781 C 92.761719 75.601562 93.074219 76.441406 93.203125 76.804688 C 93.332031 77.15625 93.578125 77.828125 93.761719 78.296875 C 93.929688 78.761719 94.125 79.386719 94.175781 79.683594 C 94.253906 80.1875 94.226562 80.28125 93.863281 80.644531 C 93.152344 81.355469 93.320312 81.433594 94.527344 80.941406 C 94.980469 80.757812 95.484375 80.539062 95.667969 80.472656 C 95.847656 80.394531 96.082031 80.292969 96.183594 80.253906 C 96.289062 80.203125 97.234375 79.878906 98.296875 79.527344 C 99.554688 79.101562 100.203125 78.828125 100.203125 78.710938 C 100.203125 78.582031 100.113281 78.554688 99.917969 78.605469 C 99.113281 78.839844 98.960938 78.828125 98.53125 78.53125 C 98.105469 78.246094 97.742188 77.726562 97.585938 77.195312 C 97.507812 76.921875 97.105469 75.832031 96.445312 74.019531 C 95.355469 71.089844 95.277344 70.816406 95.277344 70.15625 C 95.277344 69.78125 95.367188 69.300781 95.472656 69.09375 C 95.667969 68.714844 96.300781 68.132812 96.417969 68.238281 C 96.445312 68.277344 96.367188 68.601562 96.25 68.964844 C 96.054688 69.535156 96.054688 69.714844 96.183594 70.207031 C 96.496094 71.320312 97.285156 71.710938 98.480469 71.359375 C 99.996094 70.90625 100.464844 69.429688 99.53125 68.003906 C 98.933594 67.109375 98 66.824219 97.027344 67.25 Z M 97.027344 67.25 "/>
<path style=" stroke:none;fill-rule:nonzero;fill:rgb(0%,0%,0%);fill-opacity:1;" d="M 86.253906 71.347656 C 85.21875 71.878906 84.375 72.242188 83.3125 72.605469 C 82.394531 72.917969 82.25 73.148438 82.949219 73.1875 C 83.390625 73.214844 83.871094 73.566406 84.105469 74.058594 C 84.179688 74.214844 84.453125 74.925781 84.714844 75.640625 C 84.972656 76.351562 85.246094 77.050781 85.296875 77.195312 C 85.359375 77.335938 85.582031 77.945312 85.800781 78.554688 C 86.007812 79.164062 86.332031 80.058594 86.515625 80.566406 C 86.695312 81.058594 86.851562 81.613281 86.851562 81.785156 C 86.851562 82.277344 86.347656 83.039062 85.867188 83.273438 C 84.648438 83.84375 84.503906 83.609375 82.378906 77.648438 C 82.183594 77.117188 81.925781 76.378906 81.796875 76.027344 C 81.667969 75.664062 81.394531 74.925781 81.1875 74.382812 C 80.992188 73.824219 80.757812 73.371094 80.679688 73.371094 C 80.605469 73.371094 79.980469 73.628906 79.320312 73.941406 C 78.644531 74.265625 77.621094 74.679688 77.039062 74.886719 C 75.910156 75.261719 75.640625 75.5625 76.417969 75.535156 C 76.714844 75.523438 76.960938 75.613281 77.167969 75.808594 C 77.582031 76.195312 77.789062 76.6875 79.007812 80.046875 C 80.449219 84.027344 80.695312 84.519531 81.5625 85.074219 C 82.015625 85.359375 83.234375 85.375 84.011719 85.101562 C 85.4375 84.597656 86.214844 84.011719 86.722656 83.027344 C 86.890625 82.703125 87.070312 82.445312 87.125 82.445312 C 87.175781 82.445312 87.292969 82.664062 87.371094 82.925781 C 87.460938 83.195312 87.578125 83.46875 87.628906 83.519531 C 87.679688 83.585938 88.097656 83.441406 88.535156 83.222656 C 89.574219 82.703125 91.882812 81.796875 92.191406 81.796875 C 92.320312 81.796875 92.425781 81.707031 92.425781 81.601562 C 92.425781 81.472656 92.296875 81.40625 92.011719 81.40625 C 91.117188 81.394531 90.832031 80.902344 89.457031 77 C 89.25 76.390625 88.886719 75.40625 88.667969 74.796875 C 88.433594 74.1875 88.214844 73.550781 88.148438 73.371094 C 87.71875 72.046875 87.242188 70.894531 87.125 70.921875 C 87.085938 70.933594 86.695312 71.128906 86.253906 71.347656 Z M 86.253906 71.347656 "/>
<path style=" stroke:none;fill-rule:nonzero;fill:rgb(0%,0%,0%);fill-opacity:1;" d="M 59.953125 76.507812 C 59.382812 76.714844 58.800781 76.933594 58.65625 77 C 58.007812 77.273438 56.855469 77.6875 55.480469 78.152344 C 53.835938 78.722656 53.535156 78.957031 54.546875 78.917969 C 55.027344 78.894531 55.273438 78.957031 55.46875 79.125 C 55.753906 79.386719 56.21875 80.527344 57.359375 83.742188 C 57.542969 84.273438 57.761719 84.855469 57.828125 85.023438 C 57.996094 85.414062 57.839844 85.570312 56.972656 85.867188 C 56.621094 85.996094 56.207031 86.140625 56.066406 86.203125 C 55.921875 86.253906 55.636719 86.371094 55.417969 86.4375 C 55.210938 86.515625 54.601562 86.734375 54.082031 86.929688 C 53.523438 87.136719 53.097656 87.242188 53.03125 87.164062 C 52.964844 87.097656 52.796875 86.695312 52.65625 86.269531 C 52.511719 85.839844 52.214844 85 51.980469 84.390625 C 51.164062 82.183594 50.800781 80.964844 50.878906 80.667969 C 50.917969 80.511719 51.179688 80.214844 51.464844 80.035156 C 51.996094 79.683594 52.164062 79.386719 51.761719 79.5 C 51.632812 79.539062 51.035156 79.75 50.425781 79.980469 C 48.855469 80.566406 47.703125 80.992188 46.160156 81.523438 C 44.683594 82.042969 44.28125 82.367188 45.304688 82.238281 C 46.265625 82.09375 46.472656 82.40625 47.640625 85.683594 C 47.832031 86.214844 48.027344 86.773438 48.09375 86.917969 C 48.144531 87.058594 48.261719 87.382812 48.351562 87.628906 C 48.441406 87.875 48.558594 88.199219 48.609375 88.34375 C 48.675781 88.484375 48.871094 89.042969 49.066406 89.574219 C 49.257812 90.105469 49.519531 90.832031 49.648438 91.195312 C 49.777344 91.542969 50.101562 92.425781 50.359375 93.140625 C 50.621094 93.851562 50.878906 94.566406 50.945312 94.734375 C 51.023438 94.902344 51.074219 95.289062 51.074219 95.601562 C 51.074219 96.132812 51.035156 96.210938 50.554688 96.523438 C 49.777344 97.039062 50 97.195312 50.945312 96.808594 C 51.8125 96.445312 53.730469 95.730469 54.535156 95.460938 C 54.886719 95.355469 55.273438 95.214844 55.417969 95.148438 C 55.558594 95.082031 56.027344 94.914062 56.441406 94.785156 C 57.4375 94.472656 57.582031 94.203125 56.6875 94.304688 C 55.664062 94.421875 55.597656 94.320312 54.328125 90.832031 C 54.183594 90.46875 53.925781 89.742188 53.746094 89.25 C 53.5625 88.746094 53.382812 88.160156 53.328125 87.953125 C 53.25 87.511719 52.890625 87.679688 56.6875 86.332031 L 58.085938 85.839844 L 58.253906 86.253906 C 58.347656 86.476562 58.527344 86.941406 58.644531 87.304688 C 58.773438 87.65625 58.929688 88.070312 58.980469 88.214844 C 59.035156 88.355469 59.148438 88.679688 59.242188 88.925781 C 59.332031 89.171875 59.449219 89.496094 59.5 89.640625 C 59.902344 90.585938 60.277344 91.867188 60.277344 92.296875 C 60.277344 92.789062 60.136719 92.96875 59.421875 93.410156 C 59.28125 93.5 59.214844 93.605469 59.265625 93.65625 C 59.34375 93.75 62.390625 92.683594 63.128906 92.308594 C 63.234375 92.257812 64.035156 91.984375 64.90625 91.714844 C 65.863281 91.402344 66.5 91.128906 66.5 91.027344 C 66.5 90.894531 66.355469 90.871094 65.929688 90.933594 C 65.605469 90.988281 65.253906 90.960938 65.113281 90.894531 C 64.777344 90.714844 64.359375 89.847656 63.714844 88.019531 C 63.519531 87.488281 63.167969 86.488281 62.921875 85.816406 C 62.675781 85.140625 62.324219 84.207031 62.15625 83.742188 C 61.988281 83.273438 61.679688 82.40625 61.445312 81.796875 C 60.613281 79.539062 60.382812 78.867188 60.175781 78.152344 C 59.980469 77.464844 59.992188 77.390625 60.199219 77.078125 C 60.316406 76.882812 60.5625 76.675781 60.730469 76.609375 C 61.070312 76.480469 61.238281 76.273438 61.09375 76.183594 C 61.03125 76.144531 60.523438 76.285156 59.953125 76.507812 Z M 59.953125 76.507812 "/>
<path style=" stroke:none;fill-rule:nonzero;fill:rgb(0%,0%,0%);fill-opacity:1;" d="M 70.066406 77.027344 C 69.855469 77.105469 69.558594 77.207031 69.417969 77.246094 C 69.273438 77.296875 68.753906 77.542969 68.261719 77.789062 C 65.140625 79.347656 64.53125 82.261719 66.5 86.269531 C 67.199219 87.695312 67.964844 88.535156 68.988281 88.992188 C 69.6875 89.316406 69.972656 89.367188 70.972656 89.367188 C 71.738281 89.367188 72.410156 89.289062 72.917969 89.132812 C 76.480469 88.058594 78.050781 85.761719 77.324219 82.664062 C 76.726562 80.097656 75.378906 77.894531 74.042969 77.3125 C 73.785156 77.207031 73.460938 77.050781 73.34375 76.988281 C 73.035156 76.832031 70.558594 76.855469 70.066406 77.027344 Z M 70.117188 77.714844 C 70.324219 77.816406 70.699219 78.140625 70.960938 78.4375 C 71.386719 78.945312 72.347656 80.773438 72.710938 81.796875 C 72.800781 82.042969 72.929688 82.367188 72.980469 82.507812 C 73.589844 84.050781 74.019531 85.894531 74.019531 87.035156 C 74.019531 87.914062 73.980469 88.109375 73.734375 88.367188 C 73.304688 88.820312 72.929688 88.746094 72.191406 88.058594 C 71.710938 87.617188 71.386719 87.125 70.921875 86.152344 C 70.582031 85.425781 70.21875 84.636719 70.128906 84.390625 C 70.050781 84.144531 69.921875 83.820312 69.855469 83.675781 C 69.480469 82.78125 69.027344 81.097656 68.832031 79.929688 C 68.679688 78.917969 68.847656 78 69.261719 77.714844 C 69.609375 77.464844 69.664062 77.464844 70.117188 77.714844 Z M 70.117188 77.714844 "/>
</g>
</svg>
